<?xml version="1.0" encoding="UTF-8"?><svg id="Layer_2" xmlns="http://www.w3.org/2000/svg" viewBox="0 0 364 117"><defs><style>.cls-1{fill:none;stroke:#e28f83;stroke-miterlimit:10;stroke-width:4px;}</style></defs><g id="btn-shape"><path class="cls-1" d="M56.64,2.51c-2.24,.2-4.48,.47-6.71,.81C30.11,6.39,11.05,15.96,5.18,36.31-.62,56.37,.58,85.32,16.64,100.68c13.61,13.01,34.77,13.54,52.48,13.6,61.99,.23,123.99,.46,185.98,.69,14.13,.05,28.28,.11,42.39-.65,10.76-.58,21.68-1.67,31.61-5.84,17.69-7.43,30.68-24.97,32.62-44.03,3.34-32.92-23.04-56.33-53.54-60.94-16.9-2.55-34.11-.68-51.15,.63-54.36,4.16-109.02,2.44-163.43-1.06-12.31-.79-24.71-1.67-36.96-.57Z"/></g></svg>